# xmcd
#
# Track frame offsets:
#	150
#	13647
#	24600
#	32958
#	45786
#	56229
#	63396
#	75556
#	84895
#	94531
#	102454
#	109726
#	122592
#	132459
#	142822
#	151599
#	164665
#	176278
#	185869
#	197428
#	207478
#	215773
#	224824
#	238839
#	248634
#	258201
#	269781
#	282180
#	293048
#	303311
#	313019
#	326513
#
# Disc length: 4526 seconds
# Revision: 1
# Processed by: cddbd v1.5.2PL0 Copyright (c) Steve Scherf et al.
# Submitted via: dBpowerAMP V12.0
#
DISCID=d411ac20
DTITLE=Various Artist - Got Them Hill Billy Blues
DYEAR=2009
DGENRE=Blues
TTITLE0=Oscar McLollie - Roll, Hot Rod, Roll!
TTITLE1=Joe Clay - Crackerjack
TTITLE2=Eddie Daniels - I Wanna Know (Why You Love Me So)
TTITLE3=Chuck Berry - The Down Bound Train
TTITLE4=Big John Greer - Come Back, Maybelline
TTITLE5=Al Downing - Down on the Farm
TTITLE6=Roy Gaines - Worried 'Bout You Baby
TTITLE7=Mercy Dee - Oh Oh Please
TTITLE8=Magic Sam - Love Me With a Feeling
TTITLE9=Roy Brown - Be My Love Tonight
TTITLE10=Joe Clay - You Look That Good To Me
TTITLE11=Jimmy Newsome - Long Gone Lonesome Blues
TTITLE12=McKinley Mitchell - Rock, Everybody, Rock
TTITLE13=Eddie Riff - Ain't That Lovin' You Baby
TTITLE14=Magic Sam - 21 Days in Jail
TTITLE15=Mercy Dee - True Love
TTITLE16=Bobo Jenkins - Tell Me Who
TTITLE17=Pico Pete - Hot Dog
TTITLE18=Arthur Neal Gunter - Honey Babe
TTITLE19=T.V. Slim - Flatfoot Sam
TTITLE20=Roy Brown - Hip Shakin' Baby
TTITLE21=Joe Clay - Get On the Right Track, Baby
TTITLE22=Johnnie Fuller - All Night Long
TTITLE23=Jerry "Boogie" McCain - My Next Door Neighbor
TTITLE24=Ray Sharpe - Oh, My Baby's Gone
TTITLE25=Clear Waters - Hill Billy Blues
TTITLE26=Lazy Lester - I'm a Lover Not a Fighter
TTITLE27=Johnnie Fuller - First Stage of the Blues
TTITLE28=Eddie Riff - My Baby's Gone
TTITLE29=Rosco Gordon - Sally Jo
TTITLE30=Tarheel Slim - Wildcat Tamer
TTITLE31=Tarheel Slim - Number 9 Train
EXTD=
EXTT0=
EXTT1=
EXTT2=
EXTT3=
EXTT4=
EXTT5=
EXTT6=
EXTT7=
EXTT8=
EXTT9=
EXTT10=
EXTT11=
EXTT12=
EXTT13=
EXTT14=
EXTT15=
EXTT16=
EXTT17=
EXTT18=
EXTT19=
EXTT20=
EXTT21=
EXTT22=
EXTT23=
EXTT24=
EXTT25=
EXTT26=
EXTT27=
EXTT28=
EXTT29=
EXTT30=
EXTT31=
PLAYORDER=
